# AST/ASF file generated using VICON BodyLanguage
# -----------------------------------------------
:version 1.10
:name VICON
:units
  mass 1.0
  length 0.45
  angle deg
:documentation
   .ast/.asf automatically generated from VICON data using
   VICON BodyBuilder and BodyLanguage model FoxedUp or BRILLIANT.MOD
:root
   order TX TY TZ RX RY RZ
   axis XYZ
   position 0 0 0  
   orientation 0 0 0 
:bonedata
  begin
     id 1 
     name lhipjoint
     direction 0.584852 -0.759097 0.285867 
     length 2.43633 
     axis 0 0 0  XYZ
  end
  begin
     id 2 
     name lfemur
     direction 0.34202 -0.939693 0  
     length 7.14704  
     axis 0 0 20  XYZ
    dof rx ry rz
    limits (-160.0 20.0)
           (-70.0 70.0)
           (-60.0 70.0)
  end
  begin
     id 3 
     name ltibia
     direction 0.342022 -0.939692 0   
     length 7.68483   
     axis 0 0 20   XYZ
    dof rx
    limits (-10.0 170.0)
  end
  begin
     id 4 
     name lfoot
     direction 0.0999605 -0.274639 0.956337   
     length 2.40452   
     axis -90 7.62852e-016 20   XYZ
    dof rx rz
    limits (-45.0 90.0)
           (-70.0 20.0)
  end
  begin
     id 5 
     name ltoes
     direction 1.53468e-011 -4.21881e-011 1   
     length 1.19837   
     axis -90 7.62852e-016 20   XYZ
    dof rx
    limits (-90.0 20.0)
  end
  begin
     id 6 
     name rhipjoint
     direction -0.569886 -0.769002 0.289597   
     length 2.40495  
     axis 0 0 0  XYZ 
  end
  begin
     id 7 
     name rfemur
     direction -0.34202 -0.939693 0   
     length 7.45086   
     axis 0 0 -20   XYZ
    dof rx ry rz
    limits (-160.0 20.0)
           (-70.0 70.0)
           (-70.0 60.0)
  end
  begin
     id 8 
     name rtibia
     direction -0.34202 -0.939693 0   
     length 7.76831   
     axis 0 0 -20   XYZ
    dof rx
    limits (-10.0 170.0)
 end
 begin
     id 9 
     name rfoot
     direction -0.0798572 -0.219406 0.97236   
     length 2.35911  
     axis -90 -7.62852e-016 -20   XYZ
    dof rx rz
    limits (-45.0 90.0)
           (-20.0 70.0)
  end
  begin
     id 10 
     name rtoes
     direction -1.53469e-011 -4.21728e-011 1   
     length 1.18261   
     axis -90 -7.62852e-016 -20   XYZ
    dof rx
    limits (-90.0 20.0)
  end
  begin
     id 11 
     name lowerback
     direction 0.0242088 0.999437 0.0232389   
     length 2.1561   
     axis 0 0 0   XYZ
    dof rx ry rz
    limits (-20.0 45.0)
           (-30.0 30.0)
           (-30.0 30.0)
  end
  begin
     id 12 
     name upperback
     direction -0.0356893 0.999013 -0.0264323   
     length 2.14431   
     axis 0 0 0   XYZ
    dof rx ry rz
    limits (-20.0 45.0)
           (-30.0 30.0)
           (-30.0 30.0)
  end
  begin
     id 13 
     name thorax
     direction -0.0472163 0.998194 -0.0371284   
     length 2.16169   
     axis 0 0 0   XYZ
    dof rx ry rz
    limits (-20.0 45.0)
           (-30.0 30.0)
           (-30.0 30.0)
  end
  begin
     id 14 
     name lowerneck
     direction 0.00863244 0.999921 0.00911972   
     length 1.58651   
     axis 0 0 0   XYZ
    dof rx ry rz
    limits (-20.0 45.0)
           (-30.0 30.0)
           (-30.0 30.0)
  end
  begin
     id 15 
     name upperneck
     direction 0.149523 0.979068 -0.138086   
     length 1.57486   
     axis 0 0 0   XYZ
    dof rx ry rz
    limits (-20.0 45.0)
           (-30.0 30.0)
           (-30.0 30.0)
  end
  begin
     id 16
     name head
     direction 0.0445219 0.997708 -0.0509576  
     length 1.6019  
     axis 0 0 0   XYZ
    dof rx ry rz
    limits (-20.0 45.0)
           (-30.0 30.0)
           (-30.0 30.0)
  end
  begin
     id 17 
     name lclavicle
     direction 0.911271 0.381667 -0.154644  
     length 3.80848  
     axis 0 0 0   XYZ
    dof ry rz
    limits (-20.0 10.0)
           (0.0 20.0)
  end
  begin
     id 18 
     name lhumerus
     direction 1 -4.49003e-011 2.1308e-027   
     length 5.19069   
     axis 180 -30 -90   XYZ
    dof rx ry rz
    limits (-60.0 90.0)
           (-90.0 90.0)
           (-90.0 90.0)
  end
  begin
     id 19
     name lradius
     direction 1 -4.48914e-011 4.01554e-027   
     length 3.30016   
     axis 180 -30 -90   XYZ
    dof rx
    limits (-10.0 170.0)
  end
  begin
     id 20
     name lwrist
     direction 1 -4.49003e-011 1.1934e-026   
     length 1.65008   
     axis -8.46377e-015 90 90   XYZ
    dof ry
    limits (-180.0 0.0)
 end
  begin
     id 21 
     name lhand
     direction 1 -4.49034e-011 2.38659e-026   
     length 0.707698   
     axis -1.52313e-014 90 90   XYZ
    dof rx rz
    limits (-90.0 90.0)
           (-45.0 45.0)
  end
  begin
     id 22 
     name lfingers
     direction 1 -4.48691e-011 4.77775e-026   
     length 0.570564   
     axis -3.04623e-014 90 90   XYZ
    dof rx
    limits (0.0 90.0)
  end
  begin
     id 23
     name lthumb
     direction 0.707107 -6.34832e-011 0.707107   
     length 0.819219   
     axis -90 45 -1.62303e-014   XYZ
    dof rx rz
    limits (-45.0 45.0)
           (-45.0 45.0)
  end
  begin
     id 24 
     name rclavicle
     direction -0.815579 0.573708 -0.0754329   
     length 3.54371  
     axis 0 0 0   XYZ 
    dof ry rz
    limits (-10.0 20.0)
           (-20.0 0.0)
  end
  begin
     id 25 
     name rhumerus
     direction -1 -4.48956e-011 3.05351e-028  
     length 5.23924   
     axis 180 30 90   XYZ
    dof rx ry rz
    limits (-90.0 60.0)
           (-90.0 90.0)
           (-90.0 90.0)
  end
  begin
     id 26 
     name rradius
     direction -1 -4.49013e-011 3.53849e-027   
     length 3.32953   
     axis 180 30 90   XYZ
    dof rx
    limits (-10.0 170.0)
  end
  begin
     id 27 
     name rwrist
     direction -1 -4.48901e-011 1.19374e-026   
     length 1.66477   
     axis -8.46377e-015 -90 -90   XYZ
    dof ry
    limits (-180.0 0.0)
  end
  begin
     id 28
     name rhand
     direction -1 -4.48877e-011 2.38764e-026   
     length 0.607414   
     axis -1.52313e-014 -90 -90   XYZ
    dof rx rz
    limits (-90.0 90.0)
           (-45.0 45.0)
  end
  begin
     id 29
     name rfingers
     direction -1 -4.48882e-011 4.77521e-026   
     length 0.489712   
     axis -3.04623e-014 -90 -90   XYZ
    dof rx
    limits (0.0 90.0)
  end
  begin
     id 30
     name rthumb
     direction -0.707107 -6.34974e-011 0.707107   
     length 0.703132   
     axis -90 -45 1.62303e-014   XYZ
    dof rx rz
    limits (-45.0 45.0)
           (-45.0 45.0)
  end
:hierarchy
  begin
    root lhipjoint rhipjoint lowerback
    lhipjoint lfemur
    lfemur ltibia
    ltibia lfoot
    lfoot ltoes
    rhipjoint rfemur
    rfemur rtibia
    rtibia rfoot
    rfoot rtoes
    lowerback upperback
    upperback thorax
    thorax lowerneck lclavicle rclavicle
    lowerneck upperneck
    upperneck head
    lclavicle lhumerus
    lhumerus lradius
    lradius lwrist
    lwrist lhand lthumb
    lhand lfingers
    rclavicle rhumerus
    rhumerus rradius
    rradius rwrist
    rwrist rhand rthumb
    rhand rfingers
  end

#!OML:ASF E:\VariousWalksJay\Project 1\Capture day 1\Session 1\Actor2.ASF
:FULLY-SPECIFIED
:DEGREES
143
root 4.88133 17.1921 1.07945 4.8374 -8.96255 -12.047
lowerback 0.442696 -1.38332 10.3325
upperback 4.37028 -2.0576 -0.100433
thorax 3.98298 -0.657125 -5.9548
lowerneck -10.5124 -6.24446 -5.557
upperneck 12.6436 -9.69582 13.6045
head 6.53675 -4.0058 4.36959
rclavicle 3.04141e-014 2.8625e-014
rhumerus -25.4011 -2.19864 -88.8989
rradius 27.8609
rwrist 3.19711
rhand -12.2796 -6.49253
rfingers 7.12502
rthumb 13.7875 -36.0157
lclavicle 3.04141e-014 2.8625e-014
lhumerus -18.9143 4.98842 78.5913
lradius 13.0865
lwrist -6.34476
lhand -9.24953 -4.12991
lfingers 7.12502
lthumb 16.7062 25.1712
rfemur -24.2516 5.08898 29.4975
rtibia 40.4516
rfoot -16.8546 -1.54416
rtoes -6.75706
lfemur -11.3005 10.29 -11.3838
ltibia 37.7739
lfoot -32.9924 21.352
ltoes -1.86008
144
root 4.87792 17.1886 1.08382 4.75939 -8.92767 -12.058
lowerback 0.352438 -1.36179 10.382
upperback 4.3247 -2.03718 -0.120738
thorax 3.98806 -0.64607 -6.0058
lowerneck -10.5803 -6.13177 -5.45757
upperneck 12.7995 -9.54873 13.453
head 6.56966 -3.93232 4.31904
rclavicle 3.97569e-016 2.70347e-014
rhumerus -25.554 -2.49906 -88.8438
rradius 27.6012
rwrist 3.36685
rhand -12.2556 -6.48755
rfingers 7.12502
rthumb 13.8107 -36.0091
lclavicle 3.97569e-016 2.70347e-014
lhumerus -19.0074 4.6891 78.6555
lradius 13.242
lwrist -5.98968
lhand -9.22688 -4.12729
lfingers 7.12502
lthumb 16.728 25.172
rfemur -23.9535 5.20882 29.5334
rtibia 40.1678
rfoot -16.7605 -1.57608
rtoes -6.00256
lfemur -11.2348 10.3926 -11.3216
ltibia 37.8339
lfoot -32.9574 21.2457
ltoes -1.97606
145
root 4.87389 17.1849 1.08871 4.67826 -8.89071 -12.0655
lowerback 0.264468 -1.33625 10.4316
upperback 4.28125 -2.01134 -0.140843
thorax 3.99514 -0.63215 -6.05648
lowerneck -10.642 -6.03236 -5.36438
upperneck 12.9463 -9.42108 13.3205
head 6.60236 -3.86786 4.27367
rclavicle 6.36111e-015 -1.59028e-014
rhumerus -25.7016 -2.79634 -88.7837
rradius 27.3367
rwrist 3.53415
rhand -12.2415 -6.47782
rfingers 7.12502
rthumb 13.8243 -35.9984
lclavicle 6.36111e-015 -1.59028e-014
lhumerus -19.104 4.32847 78.7453
lradius 13.4415
lwrist -5.55998
lhand -9.20234 -4.12816
lfingers 7.12502
lthumb 16.7517 25.1691
rfemur -23.6572 5.32236 29.5682
rtibia 39.8587
rfoot -16.6957 -1.63652
rtoes -5.24248
lfemur -11.1629 10.489 -11.2603
ltibia 37.891
lfoot -32.9304 21.1387
ltoes -2.07526
146
root 4.86937 17.1813 1.094 4.59452 -8.85601 -12.0696
lowerback 0.180023 -1.30642 10.4809
upperback 4.24055 -1.97961 -0.160725
thorax 4.00432 -0.615112 -6.10657
lowerneck -10.6998 -5.9455 -5.27737
upperneck 13.0845 -9.31194 13.2069
head 6.63519 -3.81182 4.23355
rclavicle 3.97569e-015 6.36111e-015
rhumerus -25.8398 -3.08794 -88.7199
rradius 27.0653
rwrist 3.70378
rhand -12.2352 -6.46674
rfingers 7.12502
rthumb 13.8304 -35.9869
lclavicle 3.97569e-015 6.36111e-015
lhumerus -19.2028 3.92701 78.8553
lradius 13.6812
lwrist -5.07623
lhand -9.1795 -4.13122
lfingers 7.12502
lthumb 16.7736 25.1642
rfemur -23.3678 5.42527 29.6024
rtibia 39.5427
rfoot -16.6573 -1.72194
rtoes -4.499
lfemur -11.0838 10.5757 -11.2017
ltibia 37.9441
lfoot -32.9138 21.0373
ltoes -2.15605
147
root 4.86444 17.1776 1.09954 4.50878 -8.82733 -12.0702
lowerback 0.100125 -1.27233 10.5293
upperback 4.20289 -1.94189 -0.180247
thorax 4.01536 -0.594936 -6.15552
lowerneck -10.7551 -5.87017 -5.19636
upperneck 13.2148 -9.2198 13.111
head 6.66829 -3.76343 4.19836
rclavicle -8.74653e-015 -3.33958e-014
rhumerus -25.9652 -3.37074 -88.6534
rradius 26.7857
rwrist 3.87887
rhand -12.2347 -6.45698
rfingers 7.12502
rthumb 13.8308 -35.9772
lclavicle -8.74653e-015 -3.33958e-014
lhumerus -19.303 3.50487 78.9805
lradius 13.956
lwrist -4.55906
lhand -9.16144 -4.13568
lfingers 7.12502
lthumb 16.791 25.1583
rfemur -23.0902 5.51401 29.6361
rtibia 39.2375
rfoot -16.6408 -1.82361
rtoes -3.79425
lfemur -10.9969 10.6502 -11.1474
ltibia 37.9919
lfoot -32.9088 20.9471
ltoes -2.21809
148
root 4.85919 17.174 1.10521 4.42211 -8.80743 -12.0677
lowerback 0.0253985 -1.23433 10.5766
upperback 4.1683 -1.8986 -0.19896
thorax 4.02788 -0.571858 -6.20275
lowerneck -10.8105 -5.805 -5.12052
upperneck 13.3394 -9.14271 13.0302
head 6.70229 -3.72171 4.1673
rclavicle 1.11319e-014 -9.54166e-015
rhumerus -26.0748 -3.64255 -88.5851
rradius 26.4968
rwrist 4.06316
rhand -12.2361 -6.4492
rfingers 7.12502
rthumb 13.8295 -35.9695
lclavicle 1.11319e-014 -9.54166e-015
lhumerus -19.4035 3.07971 79.1163
lradius 14.2596
lwrist -4.02699
lhand -9.15027 -4.14183
lfingers 7.12502
lthumb 16.8018 25.1512
rfemur -22.8289 5.58653 29.6692
rtibia 38.9589
rfoot -16.6413 -1.93006
rtoes -3.14931
lfemur -10.9026 10.7108 -11.0982
ltibia 38.0334
lfoot -32.9152 20.8726
ltoes -2.26324
